<svg width="32" height="32" viewBox="0 0 32 32" fill="none" xmlns="http://www.w3.org/2000/svg">
<path d="M13.0426 15.999L19.091 9.95758C19.1974 9.8511 19.2818 9.72468 19.3394 9.58556C19.397 9.44643 19.4266 9.29731 19.4266 9.14672C19.4266 8.99613 19.397 8.84702 19.3394 8.70789C19.2818 8.56876 19.1974 8.44235 19.091 8.33587C18.9846 8.22938 18.8583 8.14492 18.7192 8.08729C18.5802 8.02966 18.4312 8 18.2807 8C18.1303 8 17.9813 8.02966 17.8422 8.08729C17.7032 8.14492 17.5769 8.22938 17.4705 8.33587L10.6233 15.1882C10.5163 15.2943 10.4314 15.4206 10.3735 15.5598C10.3155 15.699 10.2857 15.8483 10.2857 15.999C10.2857 16.1498 10.3155 16.2991 10.3735 16.4382C10.4314 16.5774 10.5163 16.7037 10.6233 16.8099L17.4705 23.6622C17.5766 23.7692 17.7028 23.8542 17.8419 23.9122C17.9809 23.9701 18.1301 24 18.2807 24C18.4314 24 18.5806 23.9701 18.7196 23.9122C18.8587 23.8542 18.9849 23.7692 19.091 23.6622C19.198 23.556 19.2829 23.4297 19.3408 23.2905C19.3987 23.1514 19.4286 23.0021 19.4286 22.8513C19.4286 22.7006 19.3987 22.5513 19.3408 22.4121C19.2829 22.273 19.198 22.1466 19.091 22.0405L13.0426 15.999Z"/>
</svg>
